# xmcd
#
# Track frame offsets: 
#        150
#        18474
#        37740
#        53729
#        72416
#        89170
#        107189
#        120480
#        134375
#        149060
#
# Disc length: 2158 seconds
#
# Revision: 1
# Processed by: cddbd v1.5.2PL0 Copyright (c) Steve Scherf et al.
# Submitted via: ExactAudioCopy v1.3
#
DISCID=92086c0a
DTITLE=Anne Mattila - Kuivaa koivua
DYEAR=2016
DGENRE=Folk
TTITLE0=Kuivaa koivua
TTITLE1=Sekunnit
TTITLE2=Vielä yksi elämä
TTITLE3=Ihminen
TTITLE4=Matkalaukku
TTITLE5=Valomereen
TTITLE6=Pyykit
TTITLE7=Kunpa vois
TTITLE8=Yksi ohikulkijoista
TTITLE9=Sido minut
EXTD=
EXTT0=
EXTT1=
EXTT2=
EXTT3=
EXTT4=
EXTT5=
EXTT6=
EXTT7=
EXTT8=
EXTT9=
PLAYORDER=
